<?xml version="1.0" encoding="utf-8"?>
<svg version="1.1" id="Layer_1" xmlns="http://www.w3.org/2000/svg" xmlns:xlink="http://www.w3.org/1999/xlink" x="0px" y="0px"
	 viewBox="0 0 1715.116 1653.261" enable-background="new 0 0 1715.116 1653.261" xml:space="preserve">
<path d="M552.048,27.464c18.222-2.332,36.494,0.858,54.685,1.908c29.538,2.332,59.178,1.343,88.776,1.696
	c29.714,0.511,29.959,19.095,51.798,33.475c18.373,12.457,33.576,29.336,53.464,39.573c10.671,5.744,16.788,17.727,16.95,29.629
	c123.48-34.603,196.222-29.795,16.839,35.474c19.757,19.117-7.991,31.208,4.422,46.054c3.564,4.301,4.442,9.984,4.543,15.395
	c11.771,3.018,23.542,6.047,35.343,8.964c17.567-9.161,19.61,5.197,21.987,10.903c5.714,8.187,13.356,14.961,18.676,23.431
	c2.251,2.958-0.666,6.077-3.836,5.906c-17.724,0.331-40.693-11.704-49.305-13.83c-14.397-3.57-19.75,7.95-17.283,22.825
	c1.746,9.671,9.348,16.95,11.559,26.439c1.232,10.246-4.765,19.282-7.915,28.609c-7.536,18.239,76.426,12.789,0.263,44.085
	c-17.902,7.703-55.726-4.718-74.189-11.317c0.202,12.912,0.262,25.823,0.686,38.735c61.902-13.2,111.307,23.601,147.712,76.036
	c13.838,19.81,33.975,58.384,88.403,40.875c2.948-0.606,6.471-2.292,9.217-0.263c2.403,2.685,3.503,6.451,6.572,8.571
	c6.653,4.846,15.062,5.885,22.704,8.409c35.456,12.317,56.541-7.984,107.412,6.007c27.337,7.11,23.828,0.469,34.687-0.343
	c5.595-0.431,40.933,2.823,41.935,2.998c4.987,0.666,10.872,1.666,15.032-1.958c2.251-1.494,4.23-4.553,7.299-3.836
	c5.355,1.605,11.141,12.077,11.721,17.707c1.534,12.134,3.16,24.258,4.745,36.393c17.848-1.484,35.706-2.948,53.555-4.543
	c11.162-33.932,51.407-23.134,82.82-6.451c83.527-54.927,167.115-109.774,250.621-164.752c17.448,3.961,24.047,13.446,23.511,27.59
	c-95.167,65.376-190.454,130.57-285.661,195.886c-0.534,12.371-4.741,12.493-13.396,12.599c-1.86,6.182-1.729,8.011-12.276,9.025
	c-3.636,4.002-3.968,6.675-16.758,2.059c-5.017,5.522-12.306,0.666-17.364-2.221c-15.274,9.833-55.543,36.585-60.52,39.936
	c14.813,126.602-45.116,240.432-64.851,342.042c-0.128,0.928,5.683,54.52,10.67,79.651c7.002,29.599,25.539,69.765,42.056,95.641
	c21.943,33.81,29.327,26.04,40.825,40.784c-70.706,7.118-97.699-8.979-157.08-64.871c-16.394-15.366-13.16-40.783-3.442-60.954
	c-12.902,9.51-25.833,18.979-38.775,28.438c-10.327-8.843-20.685-17.646-30.992-26.51c45.183-67.014,71.116-96.462,68.344-104.525
	c-7.328-6.034-40.968,10.136-72.13,18.464c-22.466,5.829-40.889,16.328-42.076,40.249c-2.1,18.958-4.735,37.867-7.147,56.785
	c4.724,2.382,9.459,4.765,14.214,7.107c1.292,66.882,7.822,86.147,25.42,120.495c32.592,61.575,52.5,54.68,63.074,70.312
	c-5.798,3.547-38.526,9.585-78.641-2.362c-31.605-8.894-70.564-46.661-92.926-70.504c-10.07-9.608,7.809-42.427,14.638-54.605
	c-17,12.962-34.071,25.813-51.041,38.816c-11.206-10.58-22.421-21.139-33.637-31.709c50.971-72.364,62.362-91.545,87.303-86.131
	c0.999-18.878,2.039-37.746,3.23-56.613c-24.965,15.066-71.335,12.997-100.224,9.681c20.647-40.562,29.439-82.913-14.82-93.309
	c-22.511-5.208-53.708-1.262-57.684,1.403c-135.88,85.617-271.791,171.183-407.681,256.769
	c1.679,46.073-22.688,108.539-29.468,121.767c-27.448,54.463-120.665,188.192-154.435,235.176
	c9.035-20.523,17.969-41.087,26.994-61.61c-13.225,14.658-26.146,29.589-39.29,44.318c9.388-17,18.979-33.879,28.276-50.93
	c-11.307,10.812-22.775,21.442-34.071,32.254c8.056-14.709,16.364-29.276,24.471-43.944c-13.538,12.043-27.025,24.157-40.663,36.09
	c10.287-15.96,20.513-31.951,30.709-47.962c-17,16.445-33.657,33.263-50.607,49.759c15.011-24.672,30.023-49.345,45.054-74.007
	c-15.082,14.204-30.194,28.377-45.216,42.662c11.317-21.058,22.734-42.056,34.091-63.084c-16.132,18.262-31.668,37.049-47.921,55.21
	c14.88-24.147,29.77-48.285,44.499-72.513c-20.675,22.028-40.815,44.56-61.681,66.416c18.232-25.208,36.221-50.597,54.443-75.804
	c-19.463,19.191-38.2,39.139-57.532,58.471c9.56-15.829,19.312-31.527,28.741-47.427c-19.181,19.736-38.099,39.745-57.552,59.218
	c19.191-25.571,38.392-51.142,57.683-76.642c-15.789,11.963-31.174,24.46-46.962,36.423c14.466-18.161,28.69-36.524,43.207-54.645
	c-14.85,7.985-29.528,16.283-44.348,24.309c13.649-13.457,27.56-26.661,41.218-40.098c-28.004,19.241-55.775,38.846-83.799,58.057
	c26.591-25.026,53.464-49.769,79.893-74.976c-13.527,8.581-27.196,16.929-40.703,25.551c12.609-15.355,25.722-30.275,38.301-45.64
	c-25.207,18.666-50.516,37.19-75.703,55.887c17.596-18.595,35.656-36.756,53.201-55.392c-17.232,10.327-34.545,20.533-51.838,30.76
	c18.02-18.111,36.363-35.898,54.473-53.928c-27.615,16.398-70.043,42.203-81.74,47.881c15.284-13.928,53.103-42.236,70.222-56.048
	c-27.479,15.324-54.927,30.689-82.427,45.983c17.081-14.89,34.374-29.538,51.414-44.469c-12.791,3.937-25.621,7.723-38.442,11.579
	c15.234-10.61,30.699-20.887,45.993-31.416c-17.555,5.805-34.99,11.953-52.515,17.848c14.083-10.378,28.276-20.634,42.45-30.901
	c-7.329-0.061-14.658,0.01-21.987-0.041c169.079-71.256,195.165-113.534,279.594-104.989c16.717,1.635,33.385,5.461,48.648,12.589
	c83.276-51.157,263.643-162.155,346.151-215.006c-12.161-0.765-158.012,9.397-203.83-101.395
	c-23.575-54.192-7.037-155.798,12.023-213.542c-27.926,58.7-56.686,118.882-64.831,126.35c0.58-14.605,23.353-81.201,19.736-96.045
	c-19.696,19.728-99.495,228.166-128.844,266.592c-25.346,30.245-13.928-50.602-41.299-53.686c-8.35-0.608-24.229,3.141-23.592-10.57
	c0.296-11.982,4.305-26.342-22.552-37.736c-30.712-12.852-69.821-0.71-121.202,2.08c-11.913,0.84-52.198,2.358-63.367-1.958
	c12.796-12.384,127.683-23.35,156.555-41.814c21.215-13.401,26.359-40.894,54.594-88.837
	c52.838-90.699,240.499-317.326,342.295-329.121c1.06-3.644,2.635-8.318-0.262-11.508c-5.152-5.364-23.095-4.444-27.307-2.604
	c-17.628,7.258-30.667,20.628-38.856,24.723c-23.221,11.942-53.616,11.87-61.843,35.04c-3.574,10.761-5.017,22.643-11.953,31.981
	c-4.598-6.361,3.168-34.147,5.401-41.663c9.569-31.445,33.974-29.885,50.566-38.361c9.345-4.672,27.288-15.93,33.041-24.683
	c-2.221-0.313-4.502-0.525-6.703,0c-27.277,6.128-22.002,19.642-49.961,10.862c13.273-11.01,24.4-8.996,25.954-23.946
	c-34.797,19.365-14.185,21.132-57.865,25.642c-3.745,0.353-7.703,1.03-11.195-0.767c2.796-3.331,6.824-5.35,11.105-5.976
	c5.815-0.858,11.317-3.039,17.111-3.998c17.759-3.415,5.536-2.541,27.489-15.254c10.123-5.757,33.733-25.558,41.208-45.307
	c-16.334,1.676-30.371,26.68-42.379,34.99c-10.987,7.526-25.248,6.523-47.053,15.446c-2.423,0.868-4.856,2.08-7.48,2.009
	c-1.666-0.616-3.099-1.676-4.583-2.584c6.277-6.277,21.947-8.382,46.054-19.897c21.476-11.056,1.515-12.316,36.171-41.582
	c10.438-9.782,19.11-21.26,29.306-31.285c3.493-3.473,7.521-6.643,9.5-11.296c-7.992-1.697-28.535,4.959-35.282,9.742
	c-32.98,23.039-55.64,69.223-74.684,74.068c0.249-12.171,14.477-21.402,17.495-25.369c4.674-5.936,8.066-12.73,12.306-18.959
	c3.856-5.532,4.896-12.367,5.249-18.948c2.508-41.406,17.696-35.249,47.114-55.806c7.936-5.226,27.819-26.472,26.994-39.24
	c-89.638,26.171-103.526,27.466-106.897,23.431c1.758-18.882,96.001-57.243,110.844-63.266c12.096-5.068-0.58-13.669-5.28-23.784
	c-8.184-17.575-4.176-53.636-1.827-72.473c2.002-22.4,1.444-17.095-15.647-22.966c-11.327-3.372-21.19-10.59-32.92-12.77
	c-23.064-5.446-39.05,6.584-106.251,39.674c-8.137,4.129-17.141,7.127-23.774,13.659c-4.866,4.583-6.855,11.953-13.275,14.88
	c-3.15,1.413-7.016,3.473-10.408,1.837c-4.403-6.657,15.31-32.169,38.402-44.277c17.162-9.096,35.323-16.152,52.596-25.036
	C513.232,41.83,531.292,30.473,552.048,27.464 M898.835,630.869c0.828,1.831,21.481,46.288,33.607,53.312
	c51.596,28.479,302.283-53.999,329.898,5.037c18.383-14.83,36.827-29.599,55.271-44.358c-15.224-4.916-30.578-9.439-45.822-14.315
	c-1.696,3.977-1.565,9.5-5.492,12.064c-11.945,3.425-26.15-14.624-39.755-11.337c-8.005,1.333-14.153,9.257-22.744,7.44
	c-21.882-5.34-12.069-14.522-78.671-5.27c-20.857,2.945-61.887,4.239-84.345,1.383c-18.986-2.547-24.313,14.83-70.757-0.212
	c-42.218-14.055-41.739-31.796-68.455-28.206C890.681,607.88,894.561,620.771,898.835,630.869z"/>
</svg>
